<svg width="148" height="24" viewBox="0 0 148 24" fill="none" xmlns="http://www.w3.org/2000/svg">
<g id="bethard_logo_horizontal_white_rgb 2" clip-path="url(#clip0_351_1781)">
<path id="Vector" d="M14.7504 21.2699C12.2747 21.2699 9.81324 19.9823 9.7104 19.9293L7.88379 18.9627L9.93029 19.2696C10.1715 19.3049 10.402 19.3225 10.6219 19.3225C12.7642 19.3225 13.1366 17.548 13.1508 17.4739L13.8495 17.6044C13.8495 17.6044 14.1758 17.8902 14.2184 17.8902C14.4666 17.8902 14.6156 18.1936 14.8674 17.9889L16.0237 17.0399L15.4172 18.4052C14.8674 19.6365 15.364 20.7549 15.3711 20.769L15.5874 21.2417L15.066 21.2664C14.9632 21.2664 14.8603 21.2735 14.7539 21.2735H14.7504V21.2699Z" fill="#FACF0C"/>
<path id="Vector_2" d="M13.2716 17.3892C13.8745 18.0031 14.8641 18.1089 14.8641 18.1089C14.2434 19.499 14.818 20.7584 14.818 20.7584C14.7187 20.7584 14.6229 20.7655 14.5236 20.7655C12.1082 20.7655 9.6503 19.4672 9.6503 19.4672C9.91632 19.506 10.1646 19.5237 10.3916 19.5237C12.8601 19.5237 13.2645 17.4069 13.268 17.3857M16.7297 15.6535L14.4066 17.5657C14.2576 17.6856 14.0696 17.8091 13.9136 17.8867C13.9206 17.795 13.9348 17.675 13.9632 17.5163L13.2432 17.3822L12.5728 17.2516C12.5409 17.4104 12.1969 18.8181 10.3916 18.8181C10.193 18.8181 9.97661 18.8004 9.75316 18.7687L5.66016 18.1548L9.31689 20.0881C9.42332 20.1446 11.9593 21.4711 14.5236 21.4711C14.6335 21.4711 14.7435 21.4711 14.8499 21.464L15.8926 21.4146L15.4635 20.4656C15.4493 20.4303 15.0379 19.4602 15.5131 18.3912L16.7332 15.65H16.7297V15.6535Z" fill="black"/>
<path id="Vector_3" d="M4.98635 19.5977C4.54301 19.5977 4.07482 19.4637 3.58891 19.1991C2.67738 18.7016 2.15956 17.4633 1.86518 16.1051L1.99641 17.2516L0.982026 14.5351C-0.532453 10.478 1.1239 8.05428 1.5566 7.51451C1.53178 4.0783 4.12093 3.85251 6.01846 3.6867C6.25965 3.66552 6.49018 3.64436 6.7101 3.61966C7.55422 3.52087 7.74221 3.32684 8.0295 3.0305C8.39481 2.65654 8.84526 2.18732 10.3881 1.74279C10.8847 1.59815 11.3103 1.53112 11.6969 1.53112C12.2927 1.53112 12.6687 1.70046 12.9702 1.83452C13.1759 1.92625 13.3248 1.99328 13.5022 1.99328C13.7895 1.99328 14.1832 1.81335 14.7329 1.42175C15.7402 0.712634 16.8113 0.352783 17.9109 0.352783C19.3154 0.352783 20.2482 0.934893 20.5816 1.18538C21.2696 1.69693 21.5676 1.86274 21.6633 1.90861C25.8378 2.00739 26.9089 4.38876 27.1715 5.80345L27.1857 5.87049L27.1715 5.93753C26.9552 6.97826 26.714 7.90611 26.4621 8.72812V10.224C26.4514 10.7779 26.2918 11.4729 26.2636 11.6669C26.2636 11.6775 26.2565 11.6987 26.2529 11.7092C25.2987 15.336 24.0362 16.5178 22.1031 16.5178C20.7979 16.5178 19.8084 15.6182 19.7694 15.5794L19.7055 15.5194L19.6772 15.4383C19.1593 13.953 19.1771 12.3548 19.4643 10.8378C18.8188 12.3619 18.1201 13.3956 17.5384 14.0765C17.9321 13.8436 18.2655 13.5367 18.5315 13.1592L19.1274 12.3161L19.1735 13.3462C19.2338 14.6657 18.9146 15.7664 18.2726 16.4437C17.7832 16.9624 17.127 17.234 16.329 17.2481H16.2439C15.2862 17.2481 14.5662 16.9871 14.0448 16.4508C13.4986 15.8934 13.1794 15.0573 13.0659 13.8683L12.8744 14.4751C12.7148 14.9832 12.1438 15.5865 11.6082 16.0733C12.1899 15.7699 12.5481 15.2831 12.5552 15.276L13.0695 14.5669L13.1936 15.4312C13.3887 16.7965 12.619 18.0948 11.3245 18.5923C11.0265 18.7087 10.7002 18.7687 10.381 18.7687C9.7958 18.7687 7.86635 18.5217 7.66418 15.3254C7.65353 15.1737 7.64643 15.0114 7.6429 14.8385C7.33433 16.0522 6.58949 16.4931 5.94398 16.6343C6.16034 16.6695 6.36604 16.6766 6.5292 16.6766C6.84842 16.6766 7.07896 16.6413 7.08249 16.6413L7.5684 16.5637L7.49037 17.047C7.33077 18.0313 6.50793 19.5977 4.98281 19.5977H4.98635ZM13.1794 3.85603C13.3887 4.85445 13.4454 6.25857 13.3497 8.04724C13.222 10.3898 12.6722 13.1945 12.6652 13.2227L12.6581 13.2615L12.6439 13.2968C12.3814 13.893 12.0232 14.3235 11.6685 14.6339C12.0586 14.454 12.2466 14.1753 12.2502 14.1717L13.0305 13.0075C13.0305 12.8064 13.0305 12.5983 13.0305 12.3831C13.105 9.6983 14.1087 5.60943 14.5662 3.86309C14.3463 3.9407 14.1193 3.9795 13.8888 3.9795C13.6228 3.9795 13.3816 3.92658 13.1723 3.85251H13.1759L13.1794 3.85603ZM20.4255 4.39228C20.4574 5.55651 20.3475 6.94299 20.0992 8.53409C20.6632 6.94299 21.3938 5.59531 21.8655 4.80505C21.823 4.80505 21.7769 4.80857 21.7307 4.80857C21.1916 4.80857 20.7518 4.61454 20.422 4.39228H20.4255ZM7.83442 6.46672C7.98693 7.01354 8.07561 7.60625 8.11816 8.23421C8.20684 7.49336 8.29197 6.84067 8.35579 6.35028C8.19264 6.4279 8.0295 6.46672 7.86635 6.46672H7.83442Z" fill="#FACF0C"/>
<path id="Vector_4" d="M21.7627 1.55582C21.6386 1.48526 21.3513 1.3124 20.8015 0.899627C20.4398 0.631503 19.4325 0 17.918 0C16.7405 0 15.602 0.381017 14.5344 1.136C13.9421 1.5523 13.6477 1.6405 13.5058 1.6405C13.41 1.6405 13.3072 1.59816 13.1192 1.51349C12.8035 1.37237 12.3744 1.17833 11.7005 1.17833C11.282 1.17833 10.8209 1.25242 10.2924 1.40412C8.66087 1.87334 8.15013 2.40254 7.77773 2.78356C7.51171 3.05872 7.39113 3.18221 6.67112 3.26689C6.45477 3.29157 6.22423 3.31275 5.9866 3.3339C4.20965 3.48913 1.26937 3.74316 1.20198 7.34165L1.19489 7.34871V7.39811C0.630947 8.15662 -0.844516 10.6615 0.648681 14.6551L2.51785 18.6946C2.78031 19.0509 3.07823 19.3226 3.41517 19.506C3.95075 19.7988 4.47921 19.947 4.98286 19.947C6.60018 19.947 7.5188 18.4512 7.78836 17.354C8.25655 18.363 9.08295 19.1179 10.3811 19.1179C10.7428 19.1179 11.1153 19.0474 11.4522 18.9204C12.5765 18.49 13.3462 17.5198 13.5342 16.3944C13.6157 16.5002 13.7009 16.6025 13.7895 16.6942C14.3854 17.301 15.187 17.5974 16.2439 17.5974H16.3326C17.2193 17.5833 17.9783 17.2658 18.528 16.6837C18.8614 16.3309 19.1275 16.1157 19.2941 15.6041C19.3119 15.6606 19.319 15.4948 19.3367 15.5512L19.3935 15.717L19.5212 15.8369C19.5673 15.8793 20.6526 16.8706 22.0961 16.8706C24.2101 16.8706 25.877 15.6217 26.6466 11.6916C26.6891 11.4693 26.8098 10.2522 26.8098 10.2381L26.8416 8.66463C27.0793 7.87086 27.473 6.84422 27.4127 5.63061C27.324 3.84899 26.104 1.68636 21.7485 1.5523H21.7627V1.55582ZM22.848 14.5881C24.7279 13.5685 25.6818 11.5187 26.1147 10.2275C26.1147 10.2275 26.0402 10.5168 25.9835 10.9402C25.4017 15.2372 23.5042 15.8969 22.2167 15.8969C21.0356 15.8969 20.0177 15.3254 20.0177 15.3254C18.3365 10.5062 22.6388 4.24765 22.6388 4.24765C22.3089 4.39582 22.0074 4.4558 21.7343 4.4558C20.6455 4.4558 20.0142 3.51031 20.0142 3.51031C20.2057 5.366 19.9042 7.72621 19.5531 9.63129C18.0741 13.8507 16.0666 14.9303 16.0666 14.9303C17.464 14.7362 18.3081 14.0871 18.8224 13.3603C18.9111 15.2619 18.184 16.86 16.329 16.8918H16.251C14.3216 16.8918 13.2965 15.7593 13.3887 12.3937C13.4845 8.98215 15.1373 3.1293 15.1373 3.1293C14.694 3.49971 14.2683 3.62673 13.8959 3.62673C13.1227 3.62673 12.5765 3.09402 12.5765 3.09402C12.9844 4.00423 13.1227 5.67998 12.9951 8.02961C12.8674 10.3757 12.3176 13.1557 12.3176 13.1557C11.6402 14.701 10.2427 15.0326 10.2427 15.0326C10.5052 15.1102 10.7428 15.1419 10.9592 15.1419C12.0232 15.1419 12.5411 14.3729 12.5411 14.3729C12.2609 15.2584 10.3598 16.6449 10.3598 16.6449C10.4733 16.6625 10.5832 16.6695 10.6896 16.6695C11.9984 16.6695 12.8461 15.4841 12.8461 15.4841C13.0163 16.666 12.3424 17.8267 11.2004 18.2677C10.9521 18.363 10.6719 18.4194 10.3846 18.4194C9.3383 18.4194 8.17496 17.675 8.02246 15.3042C7.83093 12.2808 8.83468 5.46832 8.83468 5.46832C8.45516 5.96223 8.12532 6.11746 7.86286 6.11746C7.40531 6.11746 7.14285 5.64825 7.14285 5.64825C8.18914 7.72972 7.72807 11.0777 7.4124 14.14C7.22442 15.9745 6.18877 16.3414 5.3872 16.3414C4.85162 16.3414 4.42247 16.1756 4.42247 16.1756C4.91901 16.9024 5.89438 17.0294 6.5328 17.0294C6.89104 17.0294 7.14285 16.9871 7.14285 16.9871C7.01871 17.7526 6.34481 19.2414 4.98641 19.2414C4.62818 19.2414 4.2203 19.1356 3.75922 18.8886C1.57439 17.6962 1.87232 11.2153 1.87232 11.2153C1.06011 12.1644 1.31548 14.4081 1.31548 14.4081C-0.333778 9.99115 1.91134 7.64153 1.91489 7.63801C1.81912 3.99011 4.7665 4.19825 6.75271 3.96895C8.75664 3.7361 7.67843 2.89291 10.4875 2.08149C10.9876 1.93684 11.3813 1.88392 11.6969 1.88392C12.6262 1.88392 12.9241 2.34608 13.5022 2.34608C13.8321 2.34608 14.2542 2.19438 14.9387 1.71105C15.9885 0.970185 17.0136 0.705588 17.9109 0.705588C18.9643 0.705588 19.8404 1.07249 20.3688 1.46763C21.3477 2.19791 21.5889 2.26141 21.5889 2.26141C23.5822 2.29669 24.8341 2.86469 25.618 3.59851C26.5366 4.45932 26.8701 5.76466 26.5722 6.98181C25.0967 13.0322 22.8409 14.5881 22.8409 14.5881H22.848Z" fill="#151515"/>
<path id="Vector_5" d="M19.5812 21.5734C18.5952 21.5734 17.6269 21.2841 17.5879 21.2735L17.7546 20.5891C17.9638 20.6279 18.1731 20.6491 18.3717 20.6491C19.9217 20.6491 20.7091 19.4778 20.7161 19.4637L21.3688 18.4688V19.6577C21.3688 20.2716 21.0779 21.4534 19.9926 21.5557C19.8578 21.5699 19.7195 21.5734 19.5812 21.5734Z" fill="#FACF0C"/>
<path id="Vector_6" d="M21.727 17.2763L20.4217 19.2661C20.3827 19.3225 19.6946 20.2928 18.3717 20.2928C18.1944 20.2928 18.0064 20.2751 17.8184 20.2398L17.4814 21.6087C17.524 21.6228 18.5419 21.9227 19.5811 21.9227C19.7372 21.9227 19.8862 21.9156 20.028 21.9015C21.3652 21.7745 21.7234 20.3739 21.7234 19.6506V17.2693V17.2763H21.727Z" fill="black"/>
<path id="Vector_7" d="M23.0787 23.4396C21.7699 23.4396 20.3583 23.1151 18.8757 22.4765L14.1904 21.0371H15.8574C15.3857 20.2257 14.882 18.6981 16.3965 17.1141C17.2194 16.2532 18.6275 15.777 20.3618 15.777C22.8304 15.777 25.3556 16.7366 26.9907 18.2607C27.0228 17.7209 26.8454 16.8212 25.714 15.777L24.6818 14.8244L26.0437 15.1772C26.1077 15.1948 27.615 15.5935 28.3633 16.8848C28.8068 17.6468 28.892 18.5499 28.6116 19.566C28.1257 21.337 27.0866 22.5012 25.5224 23.0269L25.4197 23.0622L25.3132 23.0939C24.618 23.3233 23.8626 23.4431 23.0716 23.4431H23.0787V23.4396ZM22.4899 21.7568C23.0503 21.8874 23.5575 21.9544 24.008 21.9544C24.8236 21.9544 25.4443 21.7357 25.8523 21.3088C25.9161 21.2418 25.9692 21.1747 26.019 21.1042C25.4265 21.5028 24.7245 21.7251 24.1427 21.7251C23.7171 21.7251 23.3766 21.6051 23.1603 21.3793C22.9865 21.1959 22.9049 20.956 22.9226 20.6843C22.9226 20.6244 22.9262 20.5679 22.9226 20.5079C22.8198 21.023 22.6353 21.4605 22.4864 21.7604L22.4899 21.7568ZM17.2761 20.6984C17.794 20.9031 18.8012 21.2453 19.6986 21.2453C19.9469 21.2453 20.1703 21.2171 20.3618 21.1641C20.9825 20.9948 21.2344 20.4727 21.3337 20.1763C21.472 19.753 21.4684 19.2626 21.3478 18.8498C21.0499 19.2661 20.5321 19.7283 19.7163 19.7283C19.5319 19.7283 19.3404 19.7036 19.1417 19.6542C18.216 19.4213 17.8862 18.9274 17.6663 18.6028C17.5599 18.4441 17.5067 18.3735 17.4535 18.3418C17.5386 18.8992 17.6202 19.9047 17.2797 20.6949H17.2761V20.6984Z" fill="#FACF0C"/>
<path id="Vector_8" d="M19.7131 19.379C19.5642 19.379 19.401 19.3579 19.2272 19.3155C17.8014 18.9557 18.0851 17.9678 17.3297 17.9678C17.2446 17.9678 17.1417 17.982 17.0246 18.0102C17.0246 18.0102 17.4822 19.8729 16.7764 20.8713C16.7764 20.8713 18.3334 21.5981 19.6989 21.5981C19.9614 21.5981 20.2203 21.5699 20.4579 21.5064C21.9228 21.1077 22.1249 19.0509 21.3517 18.0948C21.3517 18.0948 20.9297 19.379 19.7131 19.379Z" fill="black"/>
<path id="Vector_9" d="M24.1429 21.3688C23.625 21.3688 23.249 21.1571 23.2774 20.702C23.3484 19.4813 22.3765 18.4265 22.3765 18.4265C23.1852 20.1552 21.958 21.9826 21.958 21.9826C22.7702 22.2119 23.4477 22.3072 24.0082 22.3072C26.9093 22.3072 26.764 19.7636 26.764 19.7636C26.2815 20.7796 25.0119 21.3688 24.1429 21.3688Z" fill="black"/>
<path id="Vector_10" d="M28.6751 16.7084C27.852 15.2937 26.2065 14.8562 26.1353 14.8386L24.7486 14.6022L24.6883 14.828L24.0961 16.1192C22.915 15.6782 21.6346 15.4242 20.3648 15.4242C18.5347 15.4242 17.0344 15.9393 16.1442 16.8706C14.7609 18.3171 14.9099 19.7283 15.2965 20.6844H11.8525L16.3321 22.0638L18.7546 22.8082C20.2726 23.4608 21.7304 23.7924 23.0817 23.7924C23.908 23.7924 24.7025 23.6691 25.4437 23.4221L25.536 23.3939C25.5645 23.3832 25.5929 23.3762 25.6176 23.3655L25.646 23.355C27.3272 22.7905 28.4445 21.5452 28.9623 19.6542C29.2673 18.5464 29.1715 17.5515 28.6786 16.7048H28.6751V16.7084ZM28.2742 19.4743C27.7598 21.3406 26.6605 22.2755 25.4155 22.6918C25.3835 22.7023 25.3553 22.7129 25.3197 22.7235L25.2167 22.7553C24.6138 22.9528 23.9044 23.0869 23.0817 23.0869C21.9431 23.0869 20.5883 22.8329 19.0029 22.1449L16.5414 21.3864H16.5485C16.5485 21.3864 14.6652 19.439 16.6584 17.354C17.4458 16.532 18.8184 16.1262 20.3648 16.1262C22.7412 16.1262 25.5218 17.0823 27.1853 18.9592C27.1853 18.9592 28.0117 17.4104 25.9582 15.5159C25.9582 15.5159 29.1361 16.3344 28.2742 19.4672V19.4743Z" fill="black"/>
<path id="Vector_11" d="M7.82408 17.1141L7.19629 18.4618L9.15058 18.8075L7.82408 17.1141Z" fill="black"/>
<path id="Vector_12" d="M13.3564 16.1686L12.9237 17.3222C12.8456 17.2905 13.25 17.6433 13.9026 17.922C14.3388 18.1054 14.8779 18.109 14.8779 18.109L14.9347 17.541L15.0092 17.1176L13.3564 16.1721V16.1686Z" fill="black"/>
<path id="Vector_13" d="M45.0647 15.4207C45.0647 14.0342 44.4371 13.2722 42.1386 13.2722H39.7234V17.8197C40.3512 17.8444 40.791 17.8444 41.4399 17.8444C43.9016 17.8444 45.0614 17.4987 45.0614 15.6747V15.4207H45.0647ZM45.0187 8.35422C45.0187 6.66786 43.8129 6.45971 41.4897 6.45971C40.8405 6.45971 40.3973 6.45971 39.727 6.48089V10.6121H42.1175C44.4867 10.6121 45.0187 9.87477 45.0187 8.53415V8.3507V8.35422ZM41.096 20.9384C39.1452 20.9384 37.9145 20.8925 35.5488 20.7302V3.57738C38.0563 3.41509 39.287 3.36923 41.142 3.36923C46.2245 3.36923 49.1755 4.26886 49.1755 8.19547V8.40362C49.1755 9.85713 48.5726 11.2189 47.1573 11.9351C48.6895 12.6266 49.2713 14.0801 49.2713 15.4454V15.6994C49.2713 20.0635 45.9302 20.9419 41.0995 20.9419M51.3922 20.7338V3.57738H63.1392V6.71726H55.7335V10.4569H62.6499V13.4345H55.7335V17.6151H63.1392V20.7338H51.3922ZM74.2335 6.71726V20.7338H69.8711V6.71726H64.8808V3.57738H79.2276V6.71726H74.2335ZM91.9428 20.7338V13.5086H85.4663V20.7338H81.1037V3.57738H85.4663V10.2275H91.9428V3.57738H96.2841V20.7338H91.9428ZM107.24 8.77406C107.031 7.94144 106.846 7.02066 106.704 6.14219H106.541C106.403 7.02066 106.24 7.94144 106.009 8.77406L104.778 13.3216H108.492L107.24 8.77406ZM110.304 20.7338L109.074 16.4156H104.176L102.923 20.7338H98.4688L103.275 3.57738H110.007L114.859 20.7338H110.304ZM126.414 8.9822C126.414 7.04181 125.3 6.60436 122.746 6.60436C122.19 6.60436 121.771 6.60436 121.214 6.62906V11.6176H122.793C125.368 11.6176 126.414 11.0178 126.414 9.14447V8.9822ZM127.343 20.7338L123.814 14.6163H121.214V20.7338H117.036V3.57738C118.753 3.48564 120.473 3.36923 122.608 3.36923C126.949 3.36923 130.617 4.1983 130.617 8.91162V9.07392C130.617 11.614 129.595 12.9758 127.879 13.8084L131.731 20.7373H127.343V20.7338ZM143.729 11.2224C143.729 7.57454 142.591 6.62906 139.69 6.62906H137.927V17.7103H139.69C142.591 17.7103 143.729 16.6484 143.729 13.0005V11.2224ZM139.643 20.9419C137.391 20.9419 135.93 20.8961 133.699 20.7338V3.57738C135.905 3.41509 137.274 3.36923 139.643 3.36923C145.446 3.36923 148 5.81763 148 11.2189V12.997C148 18.4935 145.563 20.9384 139.643 20.9384" fill="black"/>
</g>
<defs>
<clipPath id="clip0_351_1781">
<rect width="148" height="24" fill="white"/>
</clipPath>
</defs>
</svg>
